M48
; DRILL file KiCad 10.0.0 date 2026-04-27T18:48:53
; FORMAT={-:-/ absolute / metric / decimal}
; #@! TF.CreationDate,2026-04-27T18:48:53+05:30
; #@! TF.GenerationSoftware,Kicad,Pcbnew,10.0.0
; #@! TF.FileFunction,Plated,1,2,PTH
FMAT,2
METRIC
; #@! TA.AperFunction,Plated,PTH,ComponentDrill
T1C1.020
; #@! TA.AperFunction,Plated,PTH,ComponentDrill
T2C1.100
; #@! TA.AperFunction,Plated,PTH,ComponentDrill
T3C1.270
%
G90
G05
T1
X175.6Y-78.725
X175.6Y-81.265
X175.6Y-83.805
X175.6Y-86.345
X175.6Y-88.885
X175.6Y-91.425
X175.6Y-93.965
X175.6Y-96.505
X175.6Y-99.045
X175.6Y-101.585
X175.6Y-104.125
X175.6Y-106.665
X175.6Y-109.205
X175.6Y-111.745
X175.6Y-114.285
X175.6Y-116.825
X175.6Y-119.365
X175.6Y-121.905
X175.6Y-124.445
X201.0Y-78.725
X201.0Y-81.265
X201.0Y-83.805
X201.0Y-86.345
X201.0Y-88.885
X201.0Y-91.425
X201.0Y-93.965
X201.0Y-96.505
X201.0Y-99.045
X201.0Y-101.585
X201.0Y-104.125
X201.0Y-106.665
X201.0Y-109.205
X201.0Y-111.745
X201.0Y-114.285
X201.0Y-116.825
X201.0Y-119.365
X201.0Y-121.905
X201.0Y-124.445
T2
X70.75Y-95.47
X70.75Y-99.97
X77.25Y-95.47
X77.25Y-99.97
X88.61Y-95.49
X88.61Y-99.99
X95.11Y-95.49
X95.11Y-99.99
X108.6Y-110.26
X108.6Y-114.76
X108.62Y-80.77
X108.62Y-85.27
X115.1Y-110.26
X115.1Y-114.76
X115.12Y-80.77
X115.12Y-85.27
T3
X139.44Y-92.4
X141.98Y-92.4
X144.52Y-92.4
X147.06Y-92.4
X149.6Y-92.4
X152.14Y-92.4
X154.68Y-92.4
X157.22Y-92.4
M30
